<svg width="565" height="1280" viewBox="0 0 565 1280" fill="none" xmlns="http://www.w3.org/2000/svg">
<line x1="563" y1="637" y2="637" stroke="black" stroke-width="12"/>
<path d="M281 627.002C408.038 627.002 511 523.791 511 396.501C511 269.212 408.038 166 281 166C153.962 166 51 269.212 51 396.501C51 523.791 153.962 627.002 281 627.002Z" stroke="black" stroke-width="12"/>
<circle cx="346" cy="804" r="34" stroke="black" stroke-width="4"/>
<circle cx="477" cy="804" r="34" stroke="black" stroke-width="4"/>
<circle cx="215" cy="804" r="34" stroke="black" stroke-width="4"/>
<circle cx="84" cy="804" r="34" stroke="black" stroke-width="4"/>
<circle cx="143" cy="711" r="53" stroke="black" stroke-width="4"/>
<circle cx="281" cy="711" r="53" stroke="black" stroke-width="4"/>
<circle cx="419" cy="711" r="53" stroke="black" stroke-width="4"/>
<line x1="6" y1="346" x2="6" y2="1279" stroke="black" stroke-width="12"/>
<path d="M286 6C286 6 433 92 496 184C559 276 558.5 346 558.5 346" stroke="black" stroke-width="12" stroke-linecap="round"/>
<path d="M281.53 11.1788C284.39 9.50553 285.352 5.8304 283.679 2.9702C282.006 0.110013 278.33 -0.852146 275.47 0.821164L281.53 11.1788ZM278.5 6C275.47 0.821164 275.469 0.821906 275.467 0.822976C275.466 0.82377 275.463 0.825168 275.461 0.826755C275.455 0.82993 275.448 0.834414 275.438 0.840202C275.418 0.851779 275.389 0.868574 275.352 0.890548C275.277 0.934498 275.167 0.999169 275.023 1.08426C274.736 1.25443 274.311 1.50627 273.757 1.83734C272.648 2.49947 271.021 3.47858 268.932 4.75513C264.754 7.30809 258.726 11.0516 251.3 15.8291C236.453 25.3821 215.998 39.0814 193.558 55.6758C148.818 88.7603 95.6404 133.747 63.5495 180.61L73.4505 187.39C104.36 142.253 156.182 98.2397 200.692 65.3242C222.877 48.9186 243.11 35.3679 257.793 25.9209C265.133 21.1984 271.082 17.5044 275.189 14.9949C277.242 13.7402 278.835 12.7818 279.911 12.1392C280.449 11.818 280.857 11.5757 281.129 11.4148C281.265 11.3343 281.367 11.2742 281.434 11.2348C281.468 11.2151 281.493 11.2006 281.509 11.1912C281.517 11.1865 281.522 11.1832 281.526 11.1811C281.528 11.1801 281.529 11.1795 281.53 11.179C281.53 11.1787 281.53 11.1788 278.5 6ZM63.5495 180.61C31.6366 227.213 15.7405 268.344 7.82842 297.951C3.87358 312.75 1.91575 324.66 0.947029 332.927C0.462672 337.06 0.22556 340.282 0.109732 342.499C0.0518177 343.608 0.024221 344.466 0.0112037 345.06C0.00469492 345.357 0.00183086 345.589 0.00064467 345.753C5.15702e-05 345.835 -0.00012207 345.901 -0.00012207 345.949C-0.00012207 345.973 -7.86599e-05 345.993 -2.25644e-05 346.009C5.4834e-06 346.017 3.67026e-05 346.023 6.72527e-05 346.029C8.27875e-05 346.032 0.000103261 346.035 0.000112096 346.037C0.000132699 346.04 0.000153055 346.043 6 346C11.9998 345.957 11.9999 345.96 11.9999 345.962C11.9999 345.962 11.9999 345.964 11.9999 345.965C11.9999 345.966 11.9999 345.966 11.9999 345.966C11.9999 345.964 11.9999 345.959 11.9999 345.949C11.9999 345.929 11.9999 345.893 12.0003 345.84C12.0011 345.733 12.0031 345.561 12.0083 345.323C12.0187 344.847 12.0419 344.111 12.0934 343.126C12.1963 341.155 12.4123 338.19 12.8655 334.323C13.7718 326.59 15.6264 315.25 19.4216 301.049C27.0095 272.656 42.3634 232.787 73.4505 187.39L63.5495 180.61Z" fill="black"/>
<line x1="558" y1="346" x2="558" y2="1279" stroke="black" stroke-width="12"/>
<line x1="563" y1="1274" y2="1274" stroke="black" stroke-width="12"/>
<line x1="528" y1="854" x2="33" y2="854" stroke="black" stroke-width="12"/>
<line x1="528" y1="950" x2="33" y2="950" stroke="black" stroke-width="12"/>
<line x1="528" y1="854" x2="33" y2="854" stroke="black" stroke-width="12"/>
<line x1="528" y1="1046" x2="33" y2="1046" stroke="black" stroke-width="12"/>
<line x1="528" y1="1142" x2="33" y2="1142" stroke="black" stroke-width="12"/>
<line x1="529" y1="1238" x2="34" y2="1238" stroke="black" stroke-width="12"/>
<line x1="39" y1="847.984" x2="40.026" y2="1241.98" stroke="black" stroke-width="12"/>
<line x1="136.026" y1="847.984" x2="137.052" y2="1241.98" stroke="black" stroke-width="12"/>
<line x1="233.052" y1="847.984" x2="234.078" y2="1241.98" stroke="black" stroke-width="12"/>
<line x1="330.078" y1="847.984" x2="331.104" y2="1241.98" stroke="black" stroke-width="12"/>
<line x1="427.104" y1="847.984" x2="428.13" y2="1241.98" stroke="black" stroke-width="12"/>
<line x1="524.13" y1="847.984" x2="525.156" y2="1241.98" stroke="black" stroke-width="12"/>
</svg>
